<?xml version="1.0" encoding="UTF-8" standalone="no"?>
<svg
   xmlns:dc="http://purl.org/dc/elements/1.1/"
   xmlns:cc="http://creativecommons.org/ns#"
   xmlns:rdf="http://www.w3.org/1999/02/22-rdf-syntax-ns#"
   xmlns:svg="http://www.w3.org/2000/svg"
   xmlns="http://www.w3.org/2000/svg"
   xmlns:sodipodi="http://sodipodi.sourceforge.net/DTD/sodipodi-0.dtd"
   xmlns:inkscape="http://www.inkscape.org/namespaces/inkscape"
   height="16"
   viewBox="0 0 16 16"
   width="16"
   version="1.1"
   id="svg4"
   sodipodi:docname="picklejar.svg"
   inkscape:version="0.92.4 (5da689c313, 2019-01-14)">
  <metadata
     id="metadata10">
    <rdf:RDF>
      <cc:Work
         rdf:about="">
        <dc:format>image/svg+xml</dc:format>
        <dc:type
           rdf:resource="http://purl.org/dc/dcmitype/StillImage" />
        <dc:title></dc:title>
      </cc:Work>
    </rdf:RDF>
  </metadata>
  <defs
     id="defs8" />
  <sodipodi:namedview
     pagecolor="#ffffff"
     bordercolor="#666666"
     borderopacity="1"
     objecttolerance="10"
     gridtolerance="10"
     guidetolerance="10"
     inkscape:pageopacity="0"
     inkscape:pageshadow="2"
     inkscape:window-width="2424"
     inkscape:window-height="1368"
     id="namedview6"
     showgrid="true"
     inkscape:zoom="59"
     inkscape:cx="8.4265032"
     inkscape:cy="8.5079015"
     inkscape:window-x="0"
     inkscape:window-y="0"
     inkscape:window-maximized="0"
     inkscape:current-layer="svg4">
    <inkscape:grid
       type="xygrid"
       id="grid4520" />
  </sodipodi:namedview>
  <path
     style="fill:none;stroke:#e0e0e0;stroke-width:2;stroke-linecap:square;stroke-linejoin:round;stroke-miterlimit:4;stroke-dasharray:none;stroke-opacity:1"
     d="m 2,2 c 1,1 3,3 0,5 v 8 H 14 V 7 C 11,5 13,3 14,2"
     id="path4524"
     inkscape:connector-curvature="0"
     sodipodi:nodetypes="cccccc" />
  <path
     style="fill:#e0e0e0;stroke:#e0e0e0;stroke-width:2;stroke-linecap:butt;stroke-linejoin:round;stroke-opacity:1;stroke-miterlimit:4;stroke-dasharray:none;fill-opacity:1"
     d="m 5,1 1,2 h 4 l 1,-2 z"
     id="path4526"
     inkscape:connector-curvature="0" />
  <path
     id="path4541"
     d="m 5.137859,8.363618 a 1.7172849,1.7172849 0 0 0 0,3.43457 h 1.1448564 v -3.43457 z m 1.717285,0 v 3.43457 H 8 V 9.5084745 a 0.57242823,0.57242823 0 0 1 0.572428,0.5724285 v 1.717285 H 9.717285 V 10.080903 A 1.7172847,1.7172847 0 0 0 8,8.363618 Z m 2.862141,1.1448565 a 1.7172847,1.7172847 0 0 0 1.717285,1.7172845 0.57242823,0.57242823 0 0 1 -0.572429,0.572429 h -0.572428 v 1.144856 h 0.572428 a 1.7172847,1.7172847 0 0 0 1.717285,-1.717285 V 8.363618 H 11.43457 v 1.717285 A 0.57242823,0.57242823 0 0 1 10.862141,9.5084745 V 8.363618 H 9.717285 Z M 5.137859,10.653332 a 0.57242865,0.57242865 0 0 1 0,-1.1448575 z"
     inkscape:connector-curvature="0"
     style="fill:#41ecad;stroke-width:0.57242823" />
</svg>
